<svg width="306" height="207" viewBox="0 0 306 207" fill="none" xmlns="http://www.w3.org/2000/svg">
<path d="M1 7.00001C1 3.13401 4.13401 0 8 0H121.286C125.152 0 128.286 3.13401 128.286 7V72.6116C128.286 76.4776 125.152 79.6116 121.286 79.6116H8C4.13401 79.6116 1 76.4776 1 72.6116V7.00001Z" fill="#4CB5E2"/>
<path d="M1 33.8689C1 30.0029 4.13401 26.8689 8 26.8689H225C228.866 26.8689 232 30.0029 232 33.8689V198C232 201.866 228.866 205 225 205H7.99999C4.134 205 1 201.866 1 198V33.8689Z" fill="#4CB5E2"/>
<path d="M38.3369 40.1H254.364C258.75 40.1 262.022 44.1378 261.115 48.4283L229.165 199.428C228.49 202.618 225.675 204.9 222.415 204.9H8.51756C4.17016 204.9 0.90602 200.928 1.74827 196.663L31.5676 45.6632C32.2061 42.4303 35.0415 40.1 38.3369 40.1Z" fill="url(#paint0_radial_2_42)" stroke="black" stroke-width="0.2"/>
<path d="M294.546 85H71.029C68.6692 85 66.4948 86.2789 65.3481 88.3413L5.02029 196.841C2.61135 201.174 5.74404 206.5 10.7012 206.5H225.214C227.432 206.5 229.497 205.369 230.691 203.5L300.023 95C302.788 90.6733 299.68 85 294.546 85Z" fill="url(#paint1_linear_2_42)"/>
<path d="M294.546 85H71.029C68.6692 85 66.4948 86.2789 65.3481 88.3413L5.02029 196.841C2.61135 201.174 5.74404 206.5 10.7012 206.5H225.214C227.432 206.5 229.497 205.369 230.691 203.5L300.023 95C302.788 90.6733 299.68 85 294.546 85Z" fill="url(#paint2_radial_2_42)" fill-opacity="0.2"/>
<path d="M294.546 85H71.029C68.6692 85 66.4948 86.2789 65.3481 88.3413L5.02029 196.841C2.61135 201.174 5.74404 206.5 10.7012 206.5H225.214C227.432 206.5 229.497 205.369 230.691 203.5L300.023 95C302.788 90.6733 299.68 85 294.546 85Z" stroke="url(#paint3_linear_2_42)"/>
<defs>
<radialGradient id="paint0_radial_2_42" cx="0" cy="0" r="1" gradientUnits="userSpaceOnUse" gradientTransform="translate(148.025 35) rotate(86.8334) scale(244.373 1413.12)">
<stop stop-color="#F3FEFF"/>
<stop offset="1" stop-color="#487378"/>
</radialGradient>
<linearGradient id="paint1_linear_2_42" x1="132" y1="62.5" x2="132" y2="208" gradientUnits="userSpaceOnUse">
<stop stop-color="#4CB5E2"/>
<stop offset="1" stop-color="#98E0FF"/>
</linearGradient>
<radialGradient id="paint2_radial_2_42" cx="0" cy="0" r="1" gradientUnits="userSpaceOnUse" gradientTransform="translate(140.5 73.5001) rotate(93.6161) scale(134.768 253.175)">
<stop stop-color="#00D1FF"/>
<stop offset="1" stop-color="#CCB7B7"/>
</radialGradient>
<linearGradient id="paint3_linear_2_42" x1="132" y1="51.5" x2="132" y2="208" gradientUnits="userSpaceOnUse">
<stop stop-color="white"/>
<stop offset="1" stop-color="#666666" stop-opacity="0"/>
</linearGradient>
</defs>
</svg>
